<svg width="469" height="414" viewBox="0 0 469 414" fill="none" xmlns="http://www.w3.org/2000/svg">
<path d="M431.92 182.678C429.692 181.542 427.164 180.944 424.592 180.944C422.019 180.944 419.491 181.542 417.263 182.678L352.043 221.49V181.125C352.043 177.694 350.499 174.403 347.75 171.977C345.002 169.551 341.274 168.188 337.387 168.188H322.438C331.951 156.99 337.094 143.372 337.094 129.375C337.091 116.544 332.766 104.003 324.667 93.3477C316.569 82.6923 305.064 74.4035 291.615 69.5355C278.166 64.6674 263.38 63.44 249.139 66.0093C234.897 68.5787 221.843 74.8286 211.636 83.9645C206.416 73.7197 198.739 64.5971 189.135 57.2266C179.532 49.8562 168.23 44.4135 156.012 41.2743C143.793 38.1352 130.948 37.3745 118.363 39.0447C105.779 40.7148 93.7553 44.7762 83.1224 50.9481C72.4895 57.1201 63.5008 65.2557 56.7771 74.7931C50.0533 84.3306 45.7547 95.0426 44.178 106.189C42.6013 117.336 43.7842 128.652 47.6449 139.356C51.5056 150.06 57.9521 159.897 66.5394 168.188H43.9688C40.0817 168.188 36.3538 169.551 33.6052 171.977C30.8566 174.403 29.3125 177.694 29.3125 181.125V362.25C29.3125 365.681 30.8566 368.972 33.6052 371.398C36.3538 373.825 40.0817 375.188 43.9688 375.188H337.094C340.981 375.188 344.709 373.825 347.457 371.398C350.206 368.972 351.75 365.681 351.75 362.25V321.756L416.97 360.568C419.216 361.876 421.827 362.613 424.515 362.698C427.204 362.783 429.868 362.213 432.214 361.05C434.56 359.888 436.499 358.178 437.817 356.107C439.135 354.037 439.782 351.686 439.688 349.313V194.063C439.68 191.722 438.954 189.427 437.586 187.422C436.218 185.417 434.26 183.778 431.92 182.678ZM263.812 90.5626C272.509 90.5626 281.01 92.8389 288.24 97.1037C295.471 101.368 301.106 107.43 304.434 114.522C307.762 121.614 308.633 129.418 306.936 136.947C305.24 144.476 301.052 151.392 294.903 156.82C288.754 162.248 280.919 165.944 272.39 167.442C263.861 168.939 255.021 168.171 246.986 165.233C238.952 162.296 232.085 157.321 227.254 150.938C222.422 144.555 219.844 137.051 219.844 129.375C219.844 119.081 224.476 109.209 232.722 101.931C240.968 94.6518 252.151 90.5626 263.812 90.5626ZM205.188 168.188H196.833C198.397 166.635 199.911 165.039 201.377 163.401C202.989 165.083 204.162 166.635 205.188 168.188ZM73.2812 116.438C73.2813 106.202 76.7195 96.1971 83.1613 87.6868C89.6031 79.1766 98.7591 72.5437 109.471 68.6268C120.184 64.71 131.971 63.6852 143.343 65.682C154.716 67.6788 165.162 72.6075 173.36 79.8448C181.559 87.0822 187.143 96.3032 189.405 106.342C191.667 116.38 190.506 126.785 186.069 136.241C181.632 145.698 174.117 153.78 164.477 159.466C154.836 165.153 143.501 168.188 131.906 168.188C116.358 168.188 101.446 162.735 90.4521 153.03C79.4578 143.325 73.2813 130.163 73.2812 116.438Z" fill="#22CABE"/>
<path d="M76.897 284.643V252.395H65.935V246.711H94.587V252.395H83.625V284.643H76.897ZM107.846 285.339C105.488 285.339 103.284 284.759 101.234 283.599C99.185 282.4 97.5223 280.699 96.2463 278.495C94.9703 276.252 94.3323 273.565 94.3323 270.433C94.3323 267.262 94.9703 264.575 96.2463 262.371C97.5223 260.128 99.185 258.427 101.234 257.267C103.284 256.068 105.488 255.469 107.846 255.469C110.244 255.469 112.467 256.068 114.516 257.267C116.566 258.427 118.228 260.128 119.504 262.371C120.78 264.575 121.418 267.262 121.418 270.433C121.418 273.565 120.78 276.252 119.504 278.495C118.228 280.699 116.566 282.4 114.516 283.599C112.467 284.759 110.244 285.339 107.846 285.339ZM107.846 279.887C109.934 279.887 111.578 279.017 112.776 277.277C113.975 275.537 114.574 273.255 114.574 270.433C114.574 267.571 113.975 265.271 112.776 263.531C111.578 261.791 109.934 260.921 107.846 260.921C105.758 260.921 104.115 261.791 102.916 263.531C101.756 265.271 101.176 267.571 101.176 270.433C101.176 273.255 101.756 275.537 102.916 277.277C104.115 279.017 105.758 279.887 107.846 279.887ZM128.02 295.895V256.165H133.53L133.994 259.181H134.226C135.425 258.175 136.759 257.305 138.228 256.571C139.736 255.836 141.264 255.469 142.81 255.469C146.368 255.469 149.113 256.783 151.046 259.413C153.018 262.042 154.004 265.561 154.004 269.969C154.004 273.217 153.424 276.001 152.264 278.321C151.104 280.602 149.596 282.342 147.74 283.541C145.923 284.739 143.951 285.339 141.824 285.339C140.587 285.339 139.35 285.068 138.112 284.527C136.875 283.947 135.676 283.173 134.516 282.207L134.69 286.963V295.895H128.02ZM140.432 279.829C142.327 279.829 143.912 278.997 145.188 277.335C146.464 275.672 147.102 273.236 147.102 270.027C147.102 267.165 146.619 264.942 145.652 263.357C144.686 261.771 143.12 260.979 140.954 260.979C138.944 260.979 136.856 262.042 134.69 264.169V277.451C135.734 278.301 136.74 278.92 137.706 279.307C138.673 279.655 139.582 279.829 140.432 279.829Z" fill="white"/>
<path d="M161.339 284.643V246.711H168.937L175.665 265.271C176.09 266.469 176.496 267.707 176.883 268.983C177.308 270.22 177.714 271.457 178.101 272.695H178.333C178.758 271.457 179.164 270.22 179.551 268.983C179.937 267.707 180.324 266.469 180.711 265.271L187.265 246.711H194.921V284.643H188.715V267.301C188.715 266.102 188.753 264.807 188.831 263.415C188.947 261.984 189.063 260.553 189.179 259.123C189.333 257.692 189.469 256.397 189.585 255.237H189.353L186.279 264.053L180.073 281.105H176.071L169.807 264.053L166.791 255.237H166.559C166.675 256.397 166.791 257.692 166.907 259.123C167.061 260.553 167.177 261.984 167.255 263.415C167.371 264.807 167.429 266.102 167.429 267.301V284.643H161.339ZM215.633 285.339C213.275 285.339 211.071 284.759 209.021 283.599C206.972 282.4 205.309 280.699 204.033 278.495C202.757 276.252 202.119 273.565 202.119 270.433C202.119 267.262 202.757 264.575 204.033 262.371C205.309 260.128 206.972 258.427 209.021 257.267C211.071 256.068 213.275 255.469 215.633 255.469C218.031 255.469 220.254 256.068 222.303 257.267C224.353 258.427 226.015 260.128 227.291 262.371C228.567 264.575 229.205 267.262 229.205 270.433C229.205 273.565 228.567 276.252 227.291 278.495C226.015 280.699 224.353 282.4 222.303 283.599C220.254 284.759 218.031 285.339 215.633 285.339ZM215.633 279.887C217.721 279.887 219.365 279.017 220.563 277.277C221.762 275.537 222.361 273.255 222.361 270.433C222.361 267.571 221.762 265.271 220.563 263.531C219.365 261.791 217.721 260.921 215.633 260.921C213.545 260.921 211.902 261.791 210.703 263.531C209.543 265.271 208.963 267.571 208.963 270.433C208.963 273.255 209.543 275.537 210.703 277.277C211.902 279.017 213.545 279.887 215.633 279.887ZM241.848 284.643L231.93 256.165H238.716L243.24 270.955C243.626 272.347 244.013 273.758 244.4 275.189C244.825 276.619 245.231 278.069 245.618 279.539H245.85C246.275 278.069 246.681 276.619 247.068 275.189C247.493 273.758 247.899 272.347 248.286 270.955L252.81 256.165H259.248L249.562 284.643H241.848ZM264.184 284.643V256.165H270.854V284.643H264.184ZM267.548 251.177C266.35 251.177 265.383 250.829 264.648 250.133C263.914 249.437 263.546 248.509 263.546 247.349C263.546 246.227 263.914 245.319 264.648 244.623C265.383 243.927 266.35 243.579 267.548 243.579C268.747 243.579 269.714 243.927 270.448 244.623C271.183 245.319 271.55 246.227 271.55 247.349C271.55 248.509 271.183 249.437 270.448 250.133C269.714 250.829 268.747 251.177 267.548 251.177ZM291.544 285.339C288.915 285.339 286.537 284.759 284.41 283.599C282.283 282.4 280.601 280.699 279.364 278.495C278.127 276.252 277.508 273.565 277.508 270.433C277.508 267.339 278.127 264.671 279.364 262.429C280.64 260.186 282.283 258.465 284.294 257.267C286.305 256.068 288.412 255.469 290.616 255.469C293.207 255.469 295.372 256.049 297.112 257.209C298.852 258.33 300.167 259.915 301.056 261.965C301.945 263.975 302.39 266.315 302.39 268.983C302.39 270.375 302.293 271.457 302.1 272.231H284.004C284.313 274.744 285.222 276.697 286.73 278.089C288.238 279.481 290.133 280.177 292.414 280.177C293.651 280.177 294.792 280.003 295.836 279.655C296.919 279.268 297.982 278.746 299.026 278.089L301.288 282.265C299.935 283.154 298.427 283.889 296.764 284.469C295.101 285.049 293.361 285.339 291.544 285.339ZM283.946 267.707H296.59C296.59 265.503 296.107 263.782 295.14 262.545C294.173 261.269 292.723 260.631 290.79 260.631C289.127 260.631 287.639 261.249 286.324 262.487C285.048 263.685 284.255 265.425 283.946 267.707ZM316.707 285.339C314.773 285.339 312.84 284.971 310.907 284.237C308.973 283.463 307.311 282.516 305.919 281.395L309.051 277.103C310.327 278.069 311.603 278.843 312.879 279.423C314.155 280.003 315.508 280.293 316.939 280.293C318.485 280.293 319.626 279.964 320.361 279.307C321.095 278.649 321.463 277.837 321.463 276.871C321.463 276.059 321.153 275.401 320.535 274.899C319.955 274.357 319.201 273.893 318.273 273.507C317.345 273.081 316.378 272.675 315.373 272.289C314.135 271.825 312.898 271.264 311.661 270.607C310.462 269.911 309.476 269.041 308.703 267.997C307.929 266.914 307.543 265.58 307.543 263.995C307.543 261.481 308.471 259.432 310.327 257.847C312.183 256.261 314.696 255.469 317.867 255.469C319.877 255.469 321.675 255.817 323.261 256.513C324.846 257.209 326.219 258.001 327.379 258.891L324.305 262.951C323.299 262.216 322.275 261.636 321.231 261.211C320.225 260.747 319.162 260.515 318.041 260.515C316.61 260.515 315.547 260.824 314.851 261.443C314.155 262.023 313.807 262.757 313.807 263.647C313.807 264.768 314.387 265.619 315.547 266.199C316.707 266.779 318.06 267.339 319.607 267.881C320.921 268.345 322.197 268.925 323.435 269.621C324.672 270.278 325.697 271.148 326.509 272.231C327.359 273.313 327.785 274.744 327.785 276.523C327.785 278.959 326.837 281.047 324.943 282.787C323.048 284.488 320.303 285.339 316.707 285.339Z" fill="#122469"/>
</svg>
